<svg xmlns="http://w3.org" viewBox="0 0 24 24" width="24" height="24">
  <path fill="#A6CE39" d="M12 0C5.372 0 0 5.372 0 12s5.372 12 12 12 12-5.372 12-12S18.628 0 12 0zM7.361 17.656c-.347 0-.622-.276-.622-.623V7.123c0-.348.275-.623.622-.623h1.493c.346 0 .622.275.622.623v9.911c0 .347-.276.623-.622.623H7.361zm4.619-3.832c-.347 0-.622-.275-.622-.622V7.123c0-.348.275-.623.622-.623h4.633c1.785 0 2.946 1.139 2.946 2.871 0 1.583-.933 2.553-2.316 2.766l2.583 4.908c.11.205.04.45-.154.56-.063.036-.134.054-.205.054h-1.637c-.244 0-.462-.139-.561-.362l-2.226-4.43c-.113-.223-.338-.363-.585-.363h-.278v4.542c0 .347-.276.623-.622.623h-1.42zm4.498-3.051c.883 0 1.4-.468 1.4-1.229 0-.756-.517-1.218-1.4-1.218h-2.5v2.447h2.5z"/>
</svg>
